<mxfile host="app.diagrams.net" modified="2021-09-20T08:17:22.335Z" agent="5.0 (Macintosh)" etag="6t6SRm5WlxyF9_Z0IFap" version="15.1.4" type="github">
  <diagram id="sEFRr4wUanCQYCdafpWD" name="Page-1">
    <mxGraphModel dx="2129" dy="1791" grid="1" gridSize="10" guides="1" tooltips="1" connect="1" arrows="1" fold="1" page="1" pageScale="1" pageWidth="850" pageHeight="1100" math="0" shadow="0">
      <root>
        <mxCell id="0" />
        <mxCell id="1" parent="0" />
        <mxCell id="y19e_6FGH_JvGNeWYl3u-1" value="&lt;font style=&quot;font-size: 12px&quot;&gt;&lt;b&gt;FMLObject&lt;/b&gt;&lt;/font&gt;" style="swimlane;html=1;fontStyle=0;childLayout=stackLayout;horizontal=1;startSize=26;fillColor=#fff2cc;horizontalStack=0;resizeParent=1;resizeLast=0;collapsible=1;marginBottom=0;swimlaneFillColor=#ffffff;rounded=1;shadow=0;comic=0;labelBackgroundColor=none;strokeWidth=1;fontFamily=Verdana;fontSize=10;align=center;strokeColor=#d6b656;sketch=0;swimlaneLine=1;glass=0;" vertex="1" parent="1">
          <mxGeometry x="-38" y="-1080" width="126" height="58" as="geometry" />
        </mxCell>
        <mxCell id="y19e_6FGH_JvGNeWYl3u-2" value="" style="endArrow=block;endSize=12;endFill=0;html=1;exitX=0.5;exitY=0;exitDx=0;exitDy=0;rounded=0;" edge="1" parent="1" source="y19e_6FGH_JvGNeWYl3u-3" target="y19e_6FGH_JvGNeWYl3u-1">
          <mxGeometry width="160" relative="1" as="geometry">
            <mxPoint x="-259" y="-620" as="sourcePoint" />
            <mxPoint x="-84" y="-682" as="targetPoint" />
          </mxGeometry>
        </mxCell>
        <mxCell id="y19e_6FGH_JvGNeWYl3u-3" value="&lt;font style=&quot;font-size: 12px&quot;&gt;&lt;b&gt;FlexoConcept&lt;/b&gt;&lt;/font&gt;" style="swimlane;html=1;fontStyle=0;childLayout=stackLayout;horizontal=1;startSize=26;fillColor=#fff2cc;horizontalStack=0;resizeParent=1;resizeLast=0;collapsible=1;marginBottom=0;swimlaneFillColor=#ffffff;rounded=1;shadow=0;comic=0;labelBackgroundColor=none;strokeWidth=1;fontFamily=Verdana;fontSize=10;align=center;strokeColor=#d6b656;" vertex="1" parent="1">
          <mxGeometry x="-38" y="-960" width="126" height="70" as="geometry" />
        </mxCell>
        <mxCell id="y19e_6FGH_JvGNeWYl3u-4" value="- name: String" style="text;html=1;strokeColor=none;fillColor=none;align=left;verticalAlign=top;spacingLeft=4;spacingRight=4;whiteSpace=wrap;overflow=hidden;rotatable=0;points=[[0,0.5],[1,0.5]];portConstraint=eastwest;fontSize=11;" vertex="1" parent="y19e_6FGH_JvGNeWYl3u-3">
          <mxGeometry y="26" width="126" height="18" as="geometry" />
        </mxCell>
        <mxCell id="y19e_6FGH_JvGNeWYl3u-5" value="&lt;font style=&quot;font-size: 12px&quot;&gt;&lt;b&gt;FlexoProperty&lt;/b&gt;&lt;/font&gt;" style="swimlane;html=1;fontStyle=0;childLayout=stackLayout;horizontal=1;startSize=26;fillColor=#fff2cc;horizontalStack=0;resizeParent=1;resizeLast=0;collapsible=1;marginBottom=0;swimlaneFillColor=#ffffff;rounded=1;shadow=0;comic=0;labelBackgroundColor=none;strokeWidth=1;fontFamily=Verdana;fontSize=10;align=center;strokeColor=#d6b656;" vertex="1" parent="1">
          <mxGeometry x="-232.25" y="-847" width="126" height="70" as="geometry" />
        </mxCell>
        <mxCell id="y19e_6FGH_JvGNeWYl3u-6" value="- name: String" style="text;html=1;strokeColor=none;fillColor=none;align=left;verticalAlign=top;spacingLeft=4;spacingRight=4;whiteSpace=wrap;overflow=hidden;rotatable=0;points=[[0,0.5],[1,0.5]];portConstraint=eastwest;fontSize=11;" vertex="1" parent="y19e_6FGH_JvGNeWYl3u-5">
          <mxGeometry y="26" width="126" height="18" as="geometry" />
        </mxCell>
        <mxCell id="y19e_6FGH_JvGNeWYl3u-7" value="" style="endArrow=block;html=1;fontSize=10;entryX=0.75;entryY=0;entryDx=0;entryDy=0;exitX=0;exitY=0.5;exitDx=0;exitDy=0;endFill=1;endSize=8;startArrow=diamondThin;startFill=1;startSize=12;rounded=0;" edge="1" parent="1" source="y19e_6FGH_JvGNeWYl3u-4" target="y19e_6FGH_JvGNeWYl3u-5">
          <mxGeometry width="50" height="50" relative="1" as="geometry">
            <mxPoint x="-112" y="-790" as="sourcePoint" />
            <mxPoint x="-62" y="-840" as="targetPoint" />
            <Array as="points">
              <mxPoint x="-138" y="-925" />
            </Array>
          </mxGeometry>
        </mxCell>
        <mxCell id="y19e_6FGH_JvGNeWYl3u-8" value="&lt;font style=&quot;font-size: 16px&quot;&gt;*&lt;/font&gt;" style="text;html=1;strokeColor=none;fillColor=none;align=center;verticalAlign=middle;whiteSpace=wrap;rounded=0;fontSize=10;" vertex="1" parent="1">
          <mxGeometry x="-200" y="-865" width="10" height="20" as="geometry" />
        </mxCell>
        <mxCell id="y19e_6FGH_JvGNeWYl3u-9" value="1" style="text;html=1;strokeColor=none;fillColor=none;align=center;verticalAlign=middle;whiteSpace=wrap;rounded=0;fontSize=10;" vertex="1" parent="1">
          <mxGeometry x="-58" y="-944" width="20" height="20" as="geometry" />
        </mxCell>
        <mxCell id="y19e_6FGH_JvGNeWYl3u-10" value="properties" style="text;html=1;strokeColor=none;fillColor=none;align=center;verticalAlign=middle;whiteSpace=wrap;rounded=0;fontSize=10;" vertex="1" parent="1">
          <mxGeometry x="-120" y="-943" width="60" height="20" as="geometry" />
        </mxCell>
        <mxCell id="y19e_6FGH_JvGNeWYl3u-11" value="&lt;font style=&quot;font-size: 12px&quot;&gt;&lt;b&gt;Type&lt;/b&gt;&lt;/font&gt;" style="swimlane;html=1;fontStyle=0;childLayout=stackLayout;horizontal=1;startSize=26;fillColor=#fff2cc;horizontalStack=0;resizeParent=1;resizeLast=0;collapsible=1;marginBottom=0;swimlaneFillColor=#ffffff;rounded=1;shadow=0;comic=0;labelBackgroundColor=none;strokeWidth=1;fontFamily=Verdana;fontSize=10;align=center;strokeColor=#d6b656;" vertex="1" parent="1">
          <mxGeometry x="-582" y="-1080" width="126" height="70" as="geometry" />
        </mxCell>
        <mxCell id="y19e_6FGH_JvGNeWYl3u-12" value="" style="endArrow=classic;html=1;fontSize=10;entryX=1;entryY=0.5;entryDx=0;entryDy=0;exitX=0.25;exitY=0;exitDx=0;exitDy=0;endFill=1;rounded=0;startSize=6;endSize=8;" edge="1" parent="1" source="y19e_6FGH_JvGNeWYl3u-5" target="y19e_6FGH_JvGNeWYl3u-11">
          <mxGeometry width="50" height="50" relative="1" as="geometry">
            <mxPoint x="-302" y="-833" as="sourcePoint" />
            <mxPoint x="-406" y="-833" as="targetPoint" />
            <Array as="points">
              <mxPoint x="-201" y="-1045" />
            </Array>
          </mxGeometry>
        </mxCell>
        <mxCell id="y19e_6FGH_JvGNeWYl3u-13" value="type" style="text;html=1;strokeColor=none;fillColor=none;align=center;verticalAlign=middle;whiteSpace=wrap;rounded=0;fontSize=10;" vertex="1" parent="1">
          <mxGeometry x="-342" y="-1062" width="60" height="20" as="geometry" />
        </mxCell>
        <mxCell id="y19e_6FGH_JvGNeWYl3u-14" value="&lt;font style=&quot;font-size: 12px&quot;&gt;&lt;b&gt;TechnologyType&lt;/b&gt;&lt;/font&gt;" style="swimlane;html=1;fontStyle=0;childLayout=stackLayout;horizontal=1;startSize=26;fillColor=#fff2cc;horizontalStack=0;resizeParent=1;resizeLast=0;collapsible=1;marginBottom=0;swimlaneFillColor=#ffffff;rounded=1;shadow=0;comic=0;labelBackgroundColor=none;strokeWidth=1;fontFamily=Verdana;fontSize=10;align=center;strokeColor=#d6b656;" vertex="1" parent="1">
          <mxGeometry x="-587" y="-960" width="137" height="70" as="geometry" />
        </mxCell>
        <mxCell id="y19e_6FGH_JvGNeWYl3u-15" value="" style="endArrow=block;endSize=12;endFill=0;html=1;exitX=0.5;exitY=0;exitDx=0;exitDy=0;rounded=0;entryX=0.5;entryY=1;entryDx=0;entryDy=0;" edge="1" parent="1" source="y19e_6FGH_JvGNeWYl3u-14" target="y19e_6FGH_JvGNeWYl3u-11">
          <mxGeometry width="160" relative="1" as="geometry">
            <mxPoint x="-72" y="-940" as="sourcePoint" />
            <mxPoint x="-72" y="-990" as="targetPoint" />
          </mxGeometry>
        </mxCell>
        <mxCell id="y19e_6FGH_JvGNeWYl3u-16" value="" style="endArrow=block;endSize=12;endFill=0;html=1;exitX=0.25;exitY=0;exitDx=0;exitDy=0;rounded=0;entryX=0.75;entryY=1;entryDx=0;entryDy=0;" edge="1" parent="1" source="y19e_6FGH_JvGNeWYl3u-3" target="y19e_6FGH_JvGNeWYl3u-11">
          <mxGeometry width="160" relative="1" as="geometry">
            <mxPoint x="1" y="-950" as="sourcePoint" />
            <mxPoint x="-452" y="-1010" as="targetPoint" />
            <Array as="points">
              <mxPoint x="-6" y="-972" />
              <mxPoint x="-487" y="-972" />
            </Array>
          </mxGeometry>
        </mxCell>
        <mxCell id="y19e_6FGH_JvGNeWYl3u-17" value="&lt;font style=&quot;font-size: 12px&quot;&gt;&lt;b&gt;FMLVariable&lt;/b&gt;&lt;/font&gt;" style="swimlane;html=1;fontStyle=0;childLayout=stackLayout;horizontal=1;startSize=26;fillColor=#fff2cc;horizontalStack=0;resizeParent=1;resizeLast=0;collapsible=1;marginBottom=0;swimlaneFillColor=#ffffff;rounded=1;shadow=0;comic=0;labelBackgroundColor=none;strokeWidth=1;fontFamily=Verdana;fontSize=10;align=center;strokeColor=#d6b656;" vertex="1" parent="1">
          <mxGeometry x="-682" y="-711" width="128" height="70" as="geometry" />
        </mxCell>
        <mxCell id="y19e_6FGH_JvGNeWYl3u-18" value="&lt;font style=&quot;font-size: 12px&quot;&gt;&lt;b&gt;AbstractProperty&lt;/b&gt;&lt;/font&gt;" style="swimlane;html=1;fontStyle=0;childLayout=stackLayout;horizontal=1;startSize=26;fillColor=#fff2cc;horizontalStack=0;resizeParent=1;resizeLast=0;collapsible=1;marginBottom=0;swimlaneFillColor=#ffffff;rounded=1;shadow=0;comic=0;labelBackgroundColor=none;strokeWidth=1;fontFamily=Verdana;fontSize=10;align=center;strokeColor=#d6b656;" vertex="1" parent="1">
          <mxGeometry x="-820" y="-711" width="126" height="70" as="geometry" />
        </mxCell>
        <mxCell id="y19e_6FGH_JvGNeWYl3u-19" value="&lt;font style=&quot;font-size: 12px&quot;&gt;&lt;b&gt;FlexoRole&lt;/b&gt;&lt;/font&gt;" style="swimlane;html=1;fontStyle=0;childLayout=stackLayout;horizontal=1;startSize=26;fillColor=#fff2cc;horizontalStack=0;resizeParent=1;resizeLast=0;collapsible=1;marginBottom=0;swimlaneFillColor=#ffffff;rounded=1;shadow=0;comic=0;labelBackgroundColor=none;strokeWidth=1;fontFamily=Verdana;fontSize=10;align=center;strokeColor=#d6b656;" vertex="1" parent="1">
          <mxGeometry x="-542" y="-711" width="131.5" height="70" as="geometry" />
        </mxCell>
        <mxCell id="y19e_6FGH_JvGNeWYl3u-20" value="&lt;font style=&quot;font-size: 12px&quot;&gt;&lt;b&gt;ExpressionProperty&lt;/b&gt;&lt;/font&gt;" style="swimlane;html=1;fontStyle=0;childLayout=stackLayout;horizontal=1;startSize=26;fillColor=#fff2cc;horizontalStack=0;resizeParent=1;resizeLast=0;collapsible=1;marginBottom=0;swimlaneFillColor=#ffffff;rounded=1;shadow=0;comic=0;labelBackgroundColor=none;strokeWidth=1;fontFamily=Verdana;fontSize=10;align=center;strokeColor=#d6b656;" vertex="1" parent="1">
          <mxGeometry x="-398.5" y="-711" width="150" height="70" as="geometry" />
        </mxCell>
        <mxCell id="y19e_6FGH_JvGNeWYl3u-21" value="&lt;font style=&quot;font-size: 12px&quot;&gt;&lt;b&gt;GetProperty&lt;/b&gt;&lt;/font&gt;" style="swimlane;html=1;fontStyle=0;childLayout=stackLayout;horizontal=1;startSize=26;fillColor=#fff2cc;horizontalStack=0;resizeParent=1;resizeLast=0;collapsible=1;marginBottom=0;swimlaneFillColor=#ffffff;rounded=1;shadow=0;comic=0;labelBackgroundColor=none;strokeWidth=1;fontFamily=Verdana;fontSize=10;align=center;strokeColor=#d6b656;" vertex="1" parent="1">
          <mxGeometry x="-236.5" y="-711" width="134.5" height="70" as="geometry" />
        </mxCell>
        <mxCell id="y19e_6FGH_JvGNeWYl3u-22" value="&lt;font style=&quot;font-size: 12px&quot;&gt;&lt;b&gt;GetSetProperty&lt;/b&gt;&lt;/font&gt;" style="swimlane;html=1;fontStyle=0;childLayout=stackLayout;horizontal=1;startSize=26;fillColor=#fff2cc;horizontalStack=0;resizeParent=1;resizeLast=0;collapsible=1;marginBottom=0;swimlaneFillColor=#ffffff;rounded=1;shadow=0;comic=0;labelBackgroundColor=none;strokeWidth=1;fontFamily=Verdana;fontSize=10;align=center;strokeColor=#d6b656;" vertex="1" parent="1">
          <mxGeometry x="-236.5" y="-592" width="134.5" height="70" as="geometry" />
        </mxCell>
        <mxCell id="y19e_6FGH_JvGNeWYl3u-23" value="&lt;font style=&quot;font-size: 12px&quot;&gt;&lt;b&gt;VirtualModel&lt;/b&gt;&lt;/font&gt;" style="swimlane;html=1;fontStyle=0;childLayout=stackLayout;horizontal=1;startSize=26;fillColor=#fff2cc;horizontalStack=0;resizeParent=1;resizeLast=0;collapsible=1;marginBottom=0;swimlaneFillColor=#ffffff;rounded=1;shadow=0;comic=0;labelBackgroundColor=none;strokeWidth=1;fontFamily=Verdana;fontSize=10;align=center;strokeColor=#d6b656;" vertex="1" parent="1">
          <mxGeometry x="-38" y="-847" width="126" height="70" as="geometry" />
        </mxCell>
        <mxCell id="y19e_6FGH_JvGNeWYl3u-24" value="" style="endArrow=block;endSize=12;endFill=0;html=1;exitX=0.75;exitY=0;exitDx=0;exitDy=0;rounded=0;" edge="1" parent="1" source="y19e_6FGH_JvGNeWYl3u-23">
          <mxGeometry width="160" relative="1" as="geometry">
            <mxPoint x="35" y="-950" as="sourcePoint" />
            <mxPoint x="57" y="-890" as="targetPoint" />
          </mxGeometry>
        </mxCell>
        <mxCell id="y19e_6FGH_JvGNeWYl3u-25" value="" style="endArrow=block;html=1;fontSize=10;entryX=0.25;entryY=1;entryDx=0;entryDy=0;exitX=0.25;exitY=0;exitDx=0;exitDy=0;endFill=1;endSize=8;startArrow=diamondThin;startFill=1;startSize=12;" edge="1" parent="1" source="y19e_6FGH_JvGNeWYl3u-23" target="y19e_6FGH_JvGNeWYl3u-3">
          <mxGeometry width="50" height="50" relative="1" as="geometry">
            <mxPoint x="-34" y="-863" as="sourcePoint" />
            <mxPoint x="-138" y="-863" as="targetPoint" />
          </mxGeometry>
        </mxCell>
        <mxCell id="y19e_6FGH_JvGNeWYl3u-26" value="1" style="text;html=1;strokeColor=none;fillColor=none;align=center;verticalAlign=middle;whiteSpace=wrap;rounded=0;fontSize=10;" vertex="1" parent="1">
          <mxGeometry x="-4" y="-867" width="20" height="20" as="geometry" />
        </mxCell>
        <mxCell id="y19e_6FGH_JvGNeWYl3u-27" value="&lt;font style=&quot;font-size: 16px&quot;&gt;*&lt;/font&gt;" style="text;html=1;strokeColor=none;fillColor=none;align=center;verticalAlign=middle;whiteSpace=wrap;rounded=0;fontSize=10;" vertex="1" parent="1">
          <mxGeometry x="1" y="-887" width="10" height="20" as="geometry" />
        </mxCell>
        <mxCell id="y19e_6FGH_JvGNeWYl3u-28" value="" style="endArrow=classic;html=1;fontSize=10;entryX=0;entryY=0.5;entryDx=0;entryDy=0;exitX=0.25;exitY=0;exitDx=0;exitDy=0;endFill=1;rounded=0;startSize=6;endSize=8;" edge="1" parent="1" source="y19e_6FGH_JvGNeWYl3u-18" target="y19e_6FGH_JvGNeWYl3u-11">
          <mxGeometry width="50" height="50" relative="1" as="geometry">
            <mxPoint x="-229" y="-950" as="sourcePoint" />
            <mxPoint x="-446" y="-1035" as="targetPoint" />
            <Array as="points">
              <mxPoint x="-788" y="-1045" />
            </Array>
          </mxGeometry>
        </mxCell>
        <mxCell id="y19e_6FGH_JvGNeWYl3u-29" value="/type" style="text;html=1;strokeColor=none;fillColor=none;align=center;verticalAlign=middle;whiteSpace=wrap;rounded=0;fontSize=10;" vertex="1" parent="1">
          <mxGeometry x="-705" y="-1062" width="60" height="20" as="geometry" />
        </mxCell>
        <mxCell id="y19e_6FGH_JvGNeWYl3u-30" value="&lt;font style=&quot;font-size: 12px&quot;&gt;&lt;b&gt;PrimitiveType&lt;/b&gt;&lt;/font&gt;" style="swimlane;html=1;fontStyle=0;childLayout=stackLayout;horizontal=1;startSize=26;fillColor=#fff2cc;horizontalStack=0;resizeParent=1;resizeLast=0;collapsible=1;marginBottom=0;swimlaneFillColor=#ffffff;rounded=1;shadow=0;comic=0;labelBackgroundColor=none;strokeWidth=1;fontFamily=Verdana;fontSize=10;align=center;strokeColor=#d6b656;" vertex="1" parent="1">
          <mxGeometry x="-732" y="-960" width="122" height="70" as="geometry" />
        </mxCell>
        <mxCell id="y19e_6FGH_JvGNeWYl3u-31" value="" style="endArrow=block;endSize=12;endFill=0;html=1;exitX=0.5;exitY=0;exitDx=0;exitDy=0;rounded=0;entryX=0.25;entryY=1;entryDx=0;entryDy=0;" edge="1" parent="1" source="y19e_6FGH_JvGNeWYl3u-30" target="y19e_6FGH_JvGNeWYl3u-11">
          <mxGeometry width="160" relative="1" as="geometry">
            <mxPoint x="-622" y="-970" as="sourcePoint" />
            <mxPoint x="-692" y="-1020" as="targetPoint" />
            <Array as="points">
              <mxPoint x="-671" y="-980" />
              <mxPoint x="-550" y="-980" />
            </Array>
          </mxGeometry>
        </mxCell>
        <mxCell id="y19e_6FGH_JvGNeWYl3u-32" value="" style="endArrow=block;endSize=12;endFill=0;html=1;exitX=0.5;exitY=0;exitDx=0;exitDy=0;rounded=0;entryX=0.5;entryY=1;entryDx=0;entryDy=0;" edge="1" parent="1" source="y19e_6FGH_JvGNeWYl3u-18" target="y19e_6FGH_JvGNeWYl3u-5">
          <mxGeometry width="160" relative="1" as="geometry">
            <mxPoint x="-741.5" y="-717" as="sourcePoint" />
            <mxPoint x="-623" y="-767" as="targetPoint" />
            <Array as="points">
              <mxPoint x="-757" y="-737" />
              <mxPoint x="-169" y="-737" />
            </Array>
          </mxGeometry>
        </mxCell>
        <mxCell id="y19e_6FGH_JvGNeWYl3u-33" value="" style="endArrow=block;endSize=12;endFill=0;html=1;exitX=0.5;exitY=0;exitDx=0;exitDy=0;rounded=0;entryX=0.5;entryY=1;entryDx=0;entryDy=0;" edge="1" parent="1" source="y19e_6FGH_JvGNeWYl3u-17" target="y19e_6FGH_JvGNeWYl3u-5">
          <mxGeometry width="160" relative="1" as="geometry">
            <mxPoint x="-747" y="-707" as="sourcePoint" />
            <mxPoint x="-229" y="-767" as="targetPoint" />
            <Array as="points">
              <mxPoint x="-618" y="-737" />
              <mxPoint x="-169" y="-737" />
            </Array>
          </mxGeometry>
        </mxCell>
        <mxCell id="y19e_6FGH_JvGNeWYl3u-34" value="" style="endArrow=block;endSize=12;endFill=0;html=1;exitX=0.5;exitY=0;exitDx=0;exitDy=0;rounded=0;entryX=0.5;entryY=1;entryDx=0;entryDy=0;" edge="1" parent="1" source="y19e_6FGH_JvGNeWYl3u-19" target="y19e_6FGH_JvGNeWYl3u-5">
          <mxGeometry width="160" relative="1" as="geometry">
            <mxPoint x="-608" y="-707" as="sourcePoint" />
            <mxPoint x="-192" y="-767" as="targetPoint" />
            <Array as="points">
              <mxPoint x="-476" y="-737" />
              <mxPoint x="-169" y="-737" />
            </Array>
          </mxGeometry>
        </mxCell>
        <mxCell id="y19e_6FGH_JvGNeWYl3u-35" value="" style="endArrow=block;endSize=12;endFill=0;html=1;exitX=0.5;exitY=0;exitDx=0;exitDy=0;rounded=0;entryX=0.5;entryY=1;entryDx=0;entryDy=0;" edge="1" parent="1" source="y19e_6FGH_JvGNeWYl3u-20" target="y19e_6FGH_JvGNeWYl3u-5">
          <mxGeometry width="160" relative="1" as="geometry">
            <mxPoint x="-466.25" y="-707" as="sourcePoint" />
            <mxPoint x="-229" y="-767" as="targetPoint" />
            <Array as="points">
              <mxPoint x="-323" y="-737" />
              <mxPoint x="-169" y="-737" />
            </Array>
          </mxGeometry>
        </mxCell>
        <mxCell id="y19e_6FGH_JvGNeWYl3u-36" value="" style="endArrow=block;endSize=12;endFill=0;html=1;exitX=0.5;exitY=0;exitDx=0;exitDy=0;rounded=0;entryX=0.5;entryY=1;entryDx=0;entryDy=0;" edge="1" parent="1" source="y19e_6FGH_JvGNeWYl3u-21" target="y19e_6FGH_JvGNeWYl3u-5">
          <mxGeometry width="160" relative="1" as="geometry">
            <mxPoint x="-313.5" y="-707" as="sourcePoint" />
            <mxPoint x="-229" y="-767" as="targetPoint" />
            <Array as="points">
              <mxPoint x="-169" y="-737" />
            </Array>
          </mxGeometry>
        </mxCell>
        <mxCell id="y19e_6FGH_JvGNeWYl3u-37" value="" style="endArrow=block;endSize=12;endFill=0;html=1;exitX=0.5;exitY=0;exitDx=0;exitDy=0;rounded=0;entryX=0.5;entryY=1;entryDx=0;entryDy=0;" edge="1" parent="1" source="y19e_6FGH_JvGNeWYl3u-22" target="y19e_6FGH_JvGNeWYl3u-21">
          <mxGeometry width="160" relative="1" as="geometry">
            <mxPoint x="-159.25" y="-701" as="sourcePoint" />
            <mxPoint x="-229" y="-761" as="targetPoint" />
          </mxGeometry>
        </mxCell>
        <mxCell id="y19e_6FGH_JvGNeWYl3u-38" value="&lt;div&gt;&lt;font style=&quot;font-size: 12px&quot;&gt;&lt;b&gt;ModelSlot&lt;/b&gt;&lt;/font&gt;&lt;/div&gt;" style="swimlane;html=1;fontStyle=0;childLayout=stackLayout;horizontal=1;startSize=26;fillColor=#fff2cc;horizontalStack=0;resizeParent=1;resizeLast=0;collapsible=1;marginBottom=0;swimlaneFillColor=#ffffff;rounded=1;shadow=0;comic=0;labelBackgroundColor=none;strokeWidth=1;fontFamily=Verdana;fontSize=10;align=center;strokeColor=#d6b656;" vertex="1" parent="1">
          <mxGeometry x="-542" y="-592" width="131.5" height="70" as="geometry" />
        </mxCell>
        <mxCell id="y19e_6FGH_JvGNeWYl3u-39" value="" style="endArrow=block;endSize=12;endFill=0;html=1;exitX=0.75;exitY=0;exitDx=0;exitDy=0;rounded=0;entryX=0.75;entryY=1;entryDx=0;entryDy=0;" edge="1" parent="1" source="y19e_6FGH_JvGNeWYl3u-38" target="y19e_6FGH_JvGNeWYl3u-19">
          <mxGeometry width="160" relative="1" as="geometry">
            <mxPoint x="-466.25" y="-701" as="sourcePoint" />
            <mxPoint x="-492" y="-621" as="targetPoint" />
          </mxGeometry>
        </mxCell>
        <mxCell id="y19e_6FGH_JvGNeWYl3u-40" value="&lt;font style=&quot;font-size: 12px&quot;&gt;&lt;b&gt;FlexoBehaviour&lt;/b&gt;&lt;/font&gt;" style="swimlane;html=1;fontStyle=0;childLayout=stackLayout;horizontal=1;startSize=26;fillColor=#fff2cc;horizontalStack=0;resizeParent=1;resizeLast=0;collapsible=1;marginBottom=0;swimlaneFillColor=#ffffff;rounded=1;shadow=0;comic=0;labelBackgroundColor=none;strokeWidth=1;fontFamily=Verdana;fontSize=10;align=center;strokeColor=#d6b656;" vertex="1" parent="1">
          <mxGeometry x="158" y="-847" width="126" height="70" as="geometry" />
        </mxCell>
        <mxCell id="y19e_6FGH_JvGNeWYl3u-41" value="- name: String" style="text;html=1;strokeColor=none;fillColor=none;align=left;verticalAlign=top;spacingLeft=4;spacingRight=4;whiteSpace=wrap;overflow=hidden;rotatable=0;points=[[0,0.5],[1,0.5]];portConstraint=eastwest;fontSize=11;" vertex="1" parent="y19e_6FGH_JvGNeWYl3u-40">
          <mxGeometry y="26" width="126" height="18" as="geometry" />
        </mxCell>
        <mxCell id="y19e_6FGH_JvGNeWYl3u-42" value="" style="endArrow=block;html=1;fontSize=10;entryX=0.206;entryY=0;entryDx=0;entryDy=0;exitX=1;exitY=0.5;exitDx=0;exitDy=0;endFill=1;endSize=8;startArrow=diamondThin;startFill=1;startSize=12;entryPerimeter=0;rounded=0;" edge="1" parent="1" source="y19e_6FGH_JvGNeWYl3u-4" target="y19e_6FGH_JvGNeWYl3u-40">
          <mxGeometry width="50" height="50" relative="1" as="geometry">
            <mxPoint x="192" y="-843" as="sourcePoint" />
            <mxPoint x="88" y="-843" as="targetPoint" />
            <Array as="points">
              <mxPoint x="184" y="-925" />
            </Array>
          </mxGeometry>
        </mxCell>
        <mxCell id="y19e_6FGH_JvGNeWYl3u-43" value="&lt;font style=&quot;font-size: 16px&quot;&gt;*&lt;/font&gt;" style="text;html=1;strokeColor=none;fillColor=none;align=center;verticalAlign=middle;whiteSpace=wrap;rounded=0;fontSize=10;" vertex="1" parent="1">
          <mxGeometry x="169" y="-861" width="10" height="12" as="geometry" />
        </mxCell>
        <mxCell id="y19e_6FGH_JvGNeWYl3u-44" value="1" style="text;html=1;strokeColor=none;fillColor=none;align=center;verticalAlign=middle;whiteSpace=wrap;rounded=0;fontSize=10;" vertex="1" parent="1">
          <mxGeometry x="88" y="-945" width="20" height="20" as="geometry" />
        </mxCell>
        <mxCell id="y19e_6FGH_JvGNeWYl3u-45" value="behaviours" style="text;html=1;strokeColor=none;fillColor=none;align=center;verticalAlign=middle;whiteSpace=wrap;rounded=0;fontSize=10;" vertex="1" parent="1">
          <mxGeometry x="109" y="-943" width="60" height="20" as="geometry" />
        </mxCell>
        <mxCell id="y19e_6FGH_JvGNeWYl3u-46" value="&lt;font style=&quot;font-size: 12px&quot;&gt;&lt;b&gt;FMLControlGraph&lt;/b&gt;&lt;/font&gt;" style="swimlane;html=1;fontStyle=0;childLayout=stackLayout;horizontal=1;startSize=26;fillColor=#fff2cc;horizontalStack=0;resizeParent=1;resizeLast=0;collapsible=1;marginBottom=0;swimlaneFillColor=#ffffff;rounded=1;shadow=0;comic=0;labelBackgroundColor=none;strokeWidth=1;fontFamily=Verdana;fontSize=10;align=center;strokeColor=#d6b656;" vertex="1" parent="1">
          <mxGeometry x="158" y="-711" width="126" height="70" as="geometry" />
        </mxCell>
        <mxCell id="y19e_6FGH_JvGNeWYl3u-47" value="- name: String" style="text;html=1;strokeColor=none;fillColor=none;align=left;verticalAlign=top;spacingLeft=4;spacingRight=4;whiteSpace=wrap;overflow=hidden;rotatable=0;points=[[0,0.5],[1,0.5]];portConstraint=eastwest;fontSize=11;" vertex="1" parent="y19e_6FGH_JvGNeWYl3u-46">
          <mxGeometry y="26" width="126" height="18" as="geometry" />
        </mxCell>
        <mxCell id="y19e_6FGH_JvGNeWYl3u-48" value="" style="endArrow=block;html=1;fontSize=10;entryX=0.5;entryY=0;entryDx=0;entryDy=0;exitX=0.5;exitY=1;exitDx=0;exitDy=0;endFill=1;endSize=8;startArrow=diamondThin;startFill=1;startSize=12;" edge="1" parent="1" source="y19e_6FGH_JvGNeWYl3u-40" target="y19e_6FGH_JvGNeWYl3u-46">
          <mxGeometry width="50" height="50" relative="1" as="geometry">
            <mxPoint x="120.25" y="-841" as="sourcePoint" />
            <mxPoint x="120.25" y="-901" as="targetPoint" />
          </mxGeometry>
        </mxCell>
        <mxCell id="y19e_6FGH_JvGNeWYl3u-49" value="1" style="text;html=1;strokeColor=none;fillColor=none;align=center;verticalAlign=middle;whiteSpace=wrap;rounded=0;fontSize=10;" vertex="1" parent="1">
          <mxGeometry x="-455" y="-1066" width="20" height="20" as="geometry" />
        </mxCell>
        <mxCell id="y19e_6FGH_JvGNeWYl3u-50" value="" style="endArrow=classic;html=1;fontSize=10;exitX=0.25;exitY=0;exitDx=0;exitDy=0;endFill=1;rounded=0;startSize=6;endSize=8;" edge="1" parent="1" source="y19e_6FGH_JvGNeWYl3u-17">
          <mxGeometry width="50" height="50" relative="1" as="geometry">
            <mxPoint x="-778.5" y="-707" as="sourcePoint" />
            <mxPoint x="-650" y="-892" as="targetPoint" />
          </mxGeometry>
        </mxCell>
        <mxCell id="y19e_6FGH_JvGNeWYl3u-51" value="/type" style="text;html=1;strokeColor=none;fillColor=none;align=center;verticalAlign=middle;whiteSpace=wrap;rounded=0;fontSize=10;" vertex="1" parent="1">
          <mxGeometry x="-645" y="-891" width="32" height="20" as="geometry" />
        </mxCell>
        <mxCell id="y19e_6FGH_JvGNeWYl3u-52" value="1" style="text;html=1;strokeColor=none;fillColor=none;align=center;verticalAlign=middle;whiteSpace=wrap;rounded=0;fontSize=10;" vertex="1" parent="1">
          <mxGeometry x="-530.5" y="-612" width="20" height="20" as="geometry" />
        </mxCell>
        <mxCell id="y19e_6FGH_JvGNeWYl3u-53" value="&lt;font style=&quot;font-size: 16px&quot;&gt;*&lt;/font&gt;" style="text;html=1;strokeColor=none;fillColor=none;align=center;verticalAlign=middle;whiteSpace=wrap;rounded=0;fontSize=10;" vertex="1" parent="1">
          <mxGeometry x="-522" y="-638" width="10" height="20" as="geometry" />
        </mxCell>
        <mxCell id="y19e_6FGH_JvGNeWYl3u-54" value="" style="endArrow=classic;html=1;fontSize=10;exitX=0.25;exitY=1;exitDx=0;exitDy=0;endFill=1;rounded=0;startSize=6;endSize=8;entryX=0.25;entryY=0;entryDx=0;entryDy=0;" edge="1" parent="1" source="y19e_6FGH_JvGNeWYl3u-19" target="y19e_6FGH_JvGNeWYl3u-38">
          <mxGeometry width="50" height="50" relative="1" as="geometry">
            <mxPoint x="-640" y="-701" as="sourcePoint" />
            <mxPoint x="-640" y="-741" as="targetPoint" />
          </mxGeometry>
        </mxCell>
        <mxCell id="y19e_6FGH_JvGNeWYl3u-55" value="" style="endArrow=classic;html=1;fontSize=10;exitX=0.25;exitY=0;exitDx=0;exitDy=0;endFill=1;rounded=0;startSize=6;endSize=8;" edge="1" parent="1" source="y19e_6FGH_JvGNeWYl3u-19">
          <mxGeometry width="50" height="50" relative="1" as="geometry">
            <mxPoint x="-370" y="-791" as="sourcePoint" />
            <mxPoint x="-509" y="-892" as="targetPoint" />
          </mxGeometry>
        </mxCell>
        <mxCell id="y19e_6FGH_JvGNeWYl3u-56" value="&lt;font style=&quot;font-size: 12px&quot;&gt;&lt;b&gt;EditionAction&lt;/b&gt;&lt;/font&gt;" style="swimlane;html=1;fontStyle=0;childLayout=stackLayout;horizontal=1;startSize=26;fillColor=#fff2cc;horizontalStack=0;resizeParent=1;resizeLast=0;collapsible=1;marginBottom=0;swimlaneFillColor=#ffffff;rounded=1;shadow=0;comic=0;labelBackgroundColor=none;strokeWidth=1;fontFamily=Verdana;fontSize=10;align=center;strokeColor=#d6b656;" vertex="1" parent="1">
          <mxGeometry x="-13.25" y="-593" width="126" height="70" as="geometry" />
        </mxCell>
        <mxCell id="y19e_6FGH_JvGNeWYl3u-57" value="&lt;font style=&quot;font-size: 12px&quot;&gt;&lt;b&gt;CompositeGraph&lt;/b&gt;&lt;/font&gt;" style="swimlane;html=1;fontStyle=0;childLayout=stackLayout;horizontal=1;startSize=26;fillColor=#fff2cc;horizontalStack=0;resizeParent=1;resizeLast=0;collapsible=1;marginBottom=0;swimlaneFillColor=#ffffff;rounded=1;shadow=0;comic=0;labelBackgroundColor=none;strokeWidth=1;fontFamily=Verdana;fontSize=10;align=center;strokeColor=#d6b656;" vertex="1" parent="1">
          <mxGeometry x="158" y="-593" width="126" height="70" as="geometry" />
        </mxCell>
        <mxCell id="y19e_6FGH_JvGNeWYl3u-58" value="" style="endArrow=block;endSize=12;endFill=0;html=1;rounded=0;entryX=0.25;entryY=1;entryDx=0;entryDy=0;" edge="1" parent="1" target="y19e_6FGH_JvGNeWYl3u-46">
          <mxGeometry width="160" relative="1" as="geometry">
            <mxPoint x="190" y="-593" as="sourcePoint" />
            <mxPoint x="208" y="-632" as="targetPoint" />
          </mxGeometry>
        </mxCell>
        <mxCell id="y19e_6FGH_JvGNeWYl3u-59" value="1" style="text;html=1;strokeColor=none;fillColor=none;align=center;verticalAlign=middle;whiteSpace=wrap;rounded=0;fontSize=10;" vertex="1" parent="1">
          <mxGeometry x="198" y="-733" width="20" height="20" as="geometry" />
        </mxCell>
        <mxCell id="y19e_6FGH_JvGNeWYl3u-60" value="" style="endArrow=block;html=1;fontSize=10;entryX=0.75;entryY=1;entryDx=0;entryDy=0;exitX=0.75;exitY=0;exitDx=0;exitDy=0;endFill=1;endSize=8;startArrow=diamondThin;startFill=1;startSize=12;" edge="1" parent="1" source="y19e_6FGH_JvGNeWYl3u-57" target="y19e_6FGH_JvGNeWYl3u-46">
          <mxGeometry width="50" height="50" relative="1" as="geometry">
            <mxPoint x="128" y="-602" as="sourcePoint" />
            <mxPoint x="128" y="-662" as="targetPoint" />
          </mxGeometry>
        </mxCell>
        <mxCell id="y19e_6FGH_JvGNeWYl3u-61" value="&lt;font style=&quot;font-size: 16px&quot;&gt;*&lt;/font&gt;" style="text;html=1;strokeColor=none;fillColor=none;align=center;verticalAlign=middle;whiteSpace=wrap;rounded=0;fontSize=10;" vertex="1" parent="1">
          <mxGeometry x="259" y="-641" width="10" height="20" as="geometry" />
        </mxCell>
        <mxCell id="y19e_6FGH_JvGNeWYl3u-62" value="&lt;font style=&quot;font-size: 12px&quot;&gt;&lt;b&gt;Iteration&lt;/b&gt;&lt;/font&gt;" style="swimlane;html=1;fontStyle=0;childLayout=stackLayout;horizontal=1;startSize=26;fillColor=#fff2cc;horizontalStack=0;resizeParent=1;resizeLast=0;collapsible=1;marginBottom=0;swimlaneFillColor=#ffffff;rounded=1;shadow=0;comic=0;labelBackgroundColor=none;strokeWidth=1;fontFamily=Verdana;fontSize=10;align=center;strokeColor=#d6b656;" vertex="1" parent="1">
          <mxGeometry x="158" y="-482" width="126" height="70" as="geometry" />
        </mxCell>
        <mxCell id="y19e_6FGH_JvGNeWYl3u-63" value="&lt;font style=&quot;font-size: 12px&quot;&gt;&lt;b&gt;Conditional&lt;/b&gt;&lt;/font&gt;" style="swimlane;html=1;fontStyle=0;childLayout=stackLayout;horizontal=1;startSize=26;fillColor=#fff2cc;horizontalStack=0;resizeParent=1;resizeLast=0;collapsible=1;marginBottom=0;swimlaneFillColor=#ffffff;rounded=1;shadow=0;comic=0;labelBackgroundColor=none;strokeWidth=1;fontFamily=Verdana;fontSize=10;align=center;strokeColor=#d6b656;" vertex="1" parent="1">
          <mxGeometry x="20" y="-482" width="126" height="70" as="geometry" />
        </mxCell>
        <mxCell id="y19e_6FGH_JvGNeWYl3u-64" value="&lt;font style=&quot;font-size: 12px&quot;&gt;&lt;b&gt;Sequence&lt;/b&gt;&lt;/font&gt;" style="swimlane;html=1;fontStyle=0;childLayout=stackLayout;horizontal=1;startSize=26;fillColor=#fff2cc;horizontalStack=0;resizeParent=1;resizeLast=0;collapsible=1;marginBottom=0;swimlaneFillColor=#ffffff;rounded=1;shadow=0;comic=0;labelBackgroundColor=none;strokeWidth=1;fontFamily=Verdana;fontSize=10;align=center;strokeColor=#d6b656;" vertex="1" parent="1">
          <mxGeometry x="-115" y="-482" width="126" height="70" as="geometry" />
        </mxCell>
        <mxCell id="y19e_6FGH_JvGNeWYl3u-65" value="" style="endArrow=block;endSize=12;endFill=0;html=1;exitX=0.5;exitY=0;exitDx=0;exitDy=0;rounded=0;entryX=0.5;entryY=1;entryDx=0;entryDy=0;" edge="1" parent="1" source="y19e_6FGH_JvGNeWYl3u-62" target="y19e_6FGH_JvGNeWYl3u-57">
          <mxGeometry width="160" relative="1" as="geometry">
            <mxPoint x="262.5" y="-583" as="sourcePoint" />
            <mxPoint x="238" y="-512" as="targetPoint" />
          </mxGeometry>
        </mxCell>
        <mxCell id="y19e_6FGH_JvGNeWYl3u-66" value="" style="endArrow=block;endSize=12;endFill=0;html=1;exitX=0.5;exitY=0;exitDx=0;exitDy=0;rounded=0;entryX=0.5;entryY=1;entryDx=0;entryDy=0;" edge="1" parent="1" source="y19e_6FGH_JvGNeWYl3u-63" target="y19e_6FGH_JvGNeWYl3u-57">
          <mxGeometry width="160" relative="1" as="geometry">
            <mxPoint x="231" y="-472" as="sourcePoint" />
            <mxPoint x="208" y="-502" as="targetPoint" />
            <Array as="points">
              <mxPoint x="83" y="-502" />
              <mxPoint x="221" y="-502" />
            </Array>
          </mxGeometry>
        </mxCell>
        <mxCell id="y19e_6FGH_JvGNeWYl3u-67" value="" style="endArrow=block;endSize=12;endFill=0;html=1;exitX=0.5;exitY=0;exitDx=0;exitDy=0;rounded=0;entryX=0.5;entryY=1;entryDx=0;entryDy=0;" edge="1" parent="1" source="y19e_6FGH_JvGNeWYl3u-64" target="y19e_6FGH_JvGNeWYl3u-57">
          <mxGeometry width="160" relative="1" as="geometry">
            <mxPoint x="114" y="-472" as="sourcePoint" />
            <mxPoint x="138" y="-502" as="targetPoint" />
            <Array as="points">
              <mxPoint x="-52" y="-502" />
              <mxPoint x="221" y="-502" />
            </Array>
          </mxGeometry>
        </mxCell>
        <mxCell id="y19e_6FGH_JvGNeWYl3u-68" value="" style="endArrow=block;endSize=12;endFill=0;html=1;rounded=0;exitX=0.5;exitY=0;exitDx=0;exitDy=0;entryX=0.25;entryY=1;entryDx=0;entryDy=0;" edge="1" parent="1" source="y19e_6FGH_JvGNeWYl3u-56" target="y19e_6FGH_JvGNeWYl3u-46">
          <mxGeometry width="160" relative="1" as="geometry">
            <mxPoint x="199.5" y="-583" as="sourcePoint" />
            <mxPoint x="138" y="-632" as="targetPoint" />
            <Array as="points">
              <mxPoint x="50" y="-612" />
              <mxPoint x="190" y="-612" />
            </Array>
          </mxGeometry>
        </mxCell>
        <mxCell id="y19e_6FGH_JvGNeWYl3u-69" value="/type" style="text;html=1;strokeColor=none;fillColor=none;align=center;verticalAlign=middle;whiteSpace=wrap;rounded=0;fontSize=10;" vertex="1" parent="1">
          <mxGeometry x="-504" y="-890" width="32" height="20" as="geometry" />
        </mxCell>
        <mxCell id="y19e_6FGH_JvGNeWYl3u-70" value="" style="endArrow=block;endSize=12;endFill=0;html=1;exitX=0.5;exitY=0;exitDx=0;exitDy=0;rounded=0;entryX=0.5;entryY=1;entryDx=0;entryDy=0;" edge="1" parent="1" source="y19e_6FGH_JvGNeWYl3u-40" target="y19e_6FGH_JvGNeWYl3u-1">
          <mxGeometry width="160" relative="1" as="geometry">
            <mxPoint x="1" y="-950" as="sourcePoint" />
            <mxPoint x="1" y="-1000" as="targetPoint" />
            <Array as="points">
              <mxPoint x="221" y="-992" />
              <mxPoint x="25" y="-992" />
            </Array>
          </mxGeometry>
        </mxCell>
        <mxCell id="y19e_6FGH_JvGNeWYl3u-71" value="" style="endArrow=block;endSize=12;endFill=0;html=1;exitX=0.5;exitY=0;exitDx=0;exitDy=0;rounded=0;entryX=0.5;entryY=1;entryDx=0;entryDy=0;" edge="1" parent="1" source="y19e_6FGH_JvGNeWYl3u-5" target="y19e_6FGH_JvGNeWYl3u-1">
          <mxGeometry width="160" relative="1" as="geometry">
            <mxPoint x="231" y="-837" as="sourcePoint" />
            <mxPoint x="1" y="-1000" as="targetPoint" />
            <Array as="points">
              <mxPoint x="-169" y="-992" />
              <mxPoint x="25" y="-992" />
            </Array>
          </mxGeometry>
        </mxCell>
        <mxCell id="y19e_6FGH_JvGNeWYl3u-72" value="" style="endArrow=classic;html=1;fontSize=10;exitX=1;exitY=0.5;exitDx=0;exitDy=0;endFill=1;rounded=0;startSize=6;endSize=8;entryX=0;entryY=0.5;entryDx=0;entryDy=0;" edge="1" parent="1" source="y19e_6FGH_JvGNeWYl3u-21" target="y19e_6FGH_JvGNeWYl3u-47">
          <mxGeometry width="50" height="50" relative="1" as="geometry">
            <mxPoint x="-499.125" y="-701" as="sourcePoint" />
            <mxPoint x="-499" y="-882" as="targetPoint" />
          </mxGeometry>
        </mxCell>
        <mxCell id="y19e_6FGH_JvGNeWYl3u-73" value="" style="endArrow=classic;html=1;fontSize=10;exitX=1;exitY=0.5;exitDx=0;exitDy=0;endFill=1;rounded=0;startSize=6;endSize=8;entryX=0;entryY=0.75;entryDx=0;entryDy=0;" edge="1" parent="1" source="y19e_6FGH_JvGNeWYl3u-22" target="y19e_6FGH_JvGNeWYl3u-46">
          <mxGeometry width="50" height="50" relative="1" as="geometry">
            <mxPoint x="-92" y="-666" as="sourcePoint" />
            <mxPoint x="168" y="-666" as="targetPoint" />
            <Array as="points">
              <mxPoint x="-60" y="-557" />
              <mxPoint x="-60" y="-658" />
            </Array>
          </mxGeometry>
        </mxCell>
        <mxCell id="y19e_6FGH_JvGNeWYl3u-74" value="getControlGraph" style="text;html=1;strokeColor=none;fillColor=none;align=center;verticalAlign=middle;whiteSpace=wrap;rounded=0;fontSize=10;" vertex="1" parent="1">
          <mxGeometry x="-31" y="-694" width="97" height="20" as="geometry" />
        </mxCell>
        <mxCell id="y19e_6FGH_JvGNeWYl3u-75" value="setControlGraph" style="text;html=1;strokeColor=none;fillColor=none;align=center;verticalAlign=middle;whiteSpace=wrap;rounded=0;fontSize=10;" vertex="1" parent="1">
          <mxGeometry x="-31" y="-659" width="97" height="20" as="geometry" />
        </mxCell>
        <mxCell id="y19e_6FGH_JvGNeWYl3u-76" value="controlGraph" style="text;html=1;strokeColor=none;fillColor=none;align=center;verticalAlign=middle;whiteSpace=wrap;rounded=0;fontSize=10;" vertex="1" parent="1">
          <mxGeometry x="140" y="-762" width="97" height="20" as="geometry" />
        </mxCell>
        <mxCell id="y19e_6FGH_JvGNeWYl3u-77" value="concepts" style="text;html=1;strokeColor=none;fillColor=none;align=center;verticalAlign=middle;whiteSpace=wrap;rounded=0;fontSize=10;" vertex="1" parent="1">
          <mxGeometry x="-63" y="-880" width="60" height="20" as="geometry" />
        </mxCell>
      </root>
    </mxGraphModel>
  </diagram>
</mxfile>
